# xmcd
#
# Track frame offsets: 
#        150
#        34908
#        77882
#        115716
#        174531
#        233256
#        244237
#        285327
#
# Disc length: 4330 seconds
#
# Revision: 2
# Processed by: cddbd v1.5.2PL0 Copyright (c) Steve Scherf et al.
# Submitted via: ExactAudioCopy v1.1
#
DISCID=5b10e808
DTITLE=James Morrison - On The Edge
DYEAR=2004
DGENRE=Jazz
TTITLE0=Still Dangerous
TTITLE1=Da Speech
TTITLE2=Self Portrait
TTITLE3=Even Sieben
TTITLE4=Nature Boy
TTITLE5=On the edge
TTITLE6=St James Infirmary
TTITLE7=Caravan
EXTD=YEAR: 2004
EXTT0=
EXTT1=
EXTT2=
EXTT3=
EXTT4=
EXTT5=
EXTT6=
EXTT7=
PLAYORDER=
